<svg id="Layer_1" data-name="Layer 1" xmlns="http://www.w3.org/2000/svg" viewBox="0 0 761.99 936.84"><defs><style>.cls-1{font-size:653.23px;font-family:MicrosoftHimalaya, Microsoft Himalaya;}.cls-1,.cls-3{fill:#231f20;}.cls-2{font-size:489.92px;letter-spacing:-0.04em;}</style></defs><text class="cls-1" transform="translate(84.51 570.73) scale(1.08 1)">A<tspan class="cls-2" x="316.09" y="0">A</tspan></text><path class="cls-3" d="M213.42,54.83a96.9,96.9,0,0,0-96.75,96.78V894.89a96.9,96.9,0,0,0,96.75,96.78H781.78a96.91,96.91,0,0,0,96.75-96.78V283.71s1.52-17.9-6.24-35.31a97.9,97.9,0,0,0-19.16-27.69l-.08-.12L712,82.28,711.8,82a111.63,111.63,0,0,0-29.89-19.12c-21-9-42.67-8.06-42.67-8.06l.32,0Zm0,876.5A36,36,0,0,1,177,894.89V151.61a36,36,0,0,1,36.41-36.44H639.56c4.78.08,13.74,1.13,18.57,3.2a53.64,53.64,0,0,1,12.38,7.68l139.68,137a50.19,50.19,0,0,1,6.84,9.57,52.56,52.56,0,0,1,1.17,9.43s0,.95,0,.95V894.89a36,36,0,0,1-36.41,36.44Z" transform="translate(-116.67 -54.83)"/></svg>