<?xml version="1.0" encoding="utf-8"?>
<!-- Generator: Adobe Illustrator 21.1.0, SVG Export Plug-In . SVG Version: 6.00 Build 0)  -->
<svg version="1.1" id="Layer_1" xmlns="http://www.w3.org/2000/svg" xmlns:xlink="http://www.w3.org/1999/xlink" x="0px" y="0px"
	 viewBox="0 0 532 512" style="enable-background:new 0 0 532 512;" xml:space="preserve">
<style type="text/css">
	.st0{fill:#FFFFFF;}
</style>
<path class="st0" d="M44.5,442.3c-21.4,0-38.8-19-38.8-42.3V112c0-23.3,17.4-42.3,38.8-42.3H189l58.6,64h148.7
	c21.4,0,38.8,19,38.8,42.3v53.7h49.1c14.3,0,26.9,8.2,33.9,21.8c6.9,13.7,6.6,29.7-1,42.9l-73.2,128c-7.1,12.5-19.4,19.9-32.9,19.9
	H44.5z M57.3,405.7h356.5l79.8-139.3H134.3L57.3,405.7z M50,106.3c-5.9,0-10.7,5.2-10.7,11.7v253.8l67.2-121.7
	c6.9-12.6,19.7-20.5,33.1-20.5h261.7V182c0-6.4-4.7-11.7-10.7-11.7h-157l-58.6-64H50z"/>
</svg>
