<?xml version="1.0" encoding="utf-8"?>
<!-- Generator: Adobe Illustrator 24.3.0, SVG Export Plug-In . SVG Version: 6.00 Build 0)  -->
<svg version="1.1"
	 id="svg8" xmlns:cc="http://creativecommons.org/ns#" xmlns:dc="http://purl.org/dc/elements/1.1/" xmlns:inkscape="http://www.inkscape.org/namespaces/inkscape" xmlns:rdf="http://www.w3.org/1999/02/22-rdf-syntax-ns#" xmlns:sodipodi="http://sodipodi.sourceforge.net/DTD/sodipodi-0.dtd" xmlns:svg="http://www.w3.org/2000/svg"
	 xmlns="http://www.w3.org/2000/svg" xmlns:xlink="http://www.w3.org/1999/xlink" x="0px" y="0px" viewBox="0 0 213.5 262.5"
	 style="enable-background:new 0 0 213.5 262.5;" xml:space="preserve">
<style type="text/css">
	.st0{fill:#231F20;}
	.st1{display:none;fill:#231F20;}
	.st2{fill:#2C2C2C;}
</style>
<sodipodi:namedview  bordercolor="#666666" borderopacity="1.0" fit-margin-bottom="0" fit-margin-left="0" fit-margin-right="0" fit-margin-top="0" id="base" inkscape:current-layer="g899" inkscape:cx="122.12727" inkscape:cy="167.02823" inkscape:document-units="mm" inkscape:object-nodes="false" inkscape:pageopacity="0.0" inkscape:pageshadow="2" inkscape:snap-others="false" inkscape:snap-page="false" inkscape:window-height="705" inkscape:window-maximized="1" inkscape:window-width="1366" inkscape:window-x="-8" inkscape:window-y="-8" inkscape:zoom="0.98994949" pagecolor="#ffffff" showgrid="false">
	</sodipodi:namedview>
<g id="layer1" transform="translate(36.076172,-93.731774)" inkscape:groupmode="layer" inkscape:label="Capa 1">
	<g id="g899" transform="matrix(1.4843054,0,0,1.4843054,17.471885,-90.243502)">
		<g id="g876">
			<path class="st0" d="M-17.8,123.9c-10.1,0-18.3,8.2-18.3,18.3v140.3c0,10.1,8.2,18.3,18.3,18.3H89.5c10.1,0,18.3-8.2,18.3-18.3
				V167.2c0,0,0.3-3.4-1.2-6.7c-1.4-3.1-3.6-5.2-3.6-5.2c0,0,0,0,0,0l-26.6-26.1c0,0,0,0,0,0c0,0-2.3-2.2-5.6-3.6
				c-4-1.7-8.1-1.5-8.1-1.5l0.1,0L-17.8,123.9z M-17.8,289.4c-3.9,0-6.9-3-6.9-6.9V142.2c0-3.9,3-6.9,6.9-6.9h80.4
				c0.9,0,2.6,0.2,3.5,0.6c1.2,0.5,2.1,1.3,2.3,1.5l26.4,25.9c0.4,0.4,1,1.2,1.3,1.8c0.1,0.3,0.2,1.2,0.2,1.8c0,0,0,0.2,0,0.2v115.5
				c0,3.9-3,6.9-6.9,6.9H-17.8z"/>
			<path id="rect2684" inkscape:connector-curvature="0" class="st1" d="M-17.8,129.9h80.4c0,0,0,0,0.1,0c0,0,3.2,0,5.6,1
				c2.3,1,3.9,2.4,3.9,2.5c0,0,0,0,0,0l26.6,26c0,0,1.6,1.7,2.4,3.4c0.6,1.4,0.7,4,0.7,4c0,0,0,0.1,0,0.1v115.5
				c0,6.8-5.4,12.3-12.3,12.3H-17.8c-6.8,0-12.3-5.4-12.3-12.3V142.2C-30.1,135.4-24.7,129.9-17.8,129.9L-17.8,129.9z"/>
			<path class="st0" d="M-2.9,236.4c-2.4,0-4.5-0.8-5.9-2.2c-1.7-1.7-2.5-3.8-2.1-6c0.8-4.8,6.7-9.9,17.6-15.4l8.8-4.4l3.4-7.5
				c2-4.3,4.9-11.3,6.5-15.6l2.8-7.4l-1.9-5.3c-2.6-7.5-3.5-18.5-1.8-22.7c1.2-2.8,3.6-4.5,6.6-4.5c3.3,0,6.3,2,8,5.3
				c2.3,4.7,2.2,12.9-0.5,23.2l-2,7.6l1.6,2.7c1,1.7,4,5.8,6.6,9.1l4.5,5.6l5.5-0.7c3.9-0.5,7.4-0.8,10.5-0.8
				c6.5,0,17.5,1.3,17.5,10.2c0,4.6-4.1,7.5-10.7,7.5c-6.3,0-13.7-2.6-19.8-6.9c-2.1-1.5-3.8-3-4.6-3.7c-2,0.4-8.1,1.7-11.4,2.6
				c-4,1.1-6,1.8-11.7,3.7c-0.6,0.9-2.1,3.2-3.2,4.9c-5.3,8.6-11.4,15.6-15.9,18.2C2.6,235.6-0.3,236.4-2.9,236.4z M7.4,218.1
				C-4.4,224-6,227.8-6.2,228.8c-0.1,0.6,0,1,0.3,1.4c0.5,0.7,1,0.8,1.3,0.8c0.8,0,2.1-0.5,3.8-1.6c2.4-1.5,7.3-7.2,11-12.7
				L7.4,218.1z M54.1,203.4c0.7,0.5,1.5,0.9,2,1.2c2,1.2,6.8,3.2,10.2,4.3c1.5,0.5,2.7,0.7,3.7,0.7c0.9,0,1.6-0.2,2.2-0.6
				c0.9-0.6,1.3-1.5,1.3-2.5c-0.1-1.1-0.8-2-1.9-2.6c-1.8-0.9-3.3-1.3-8-1.3c-0.6,0-1.3,0-2.1,0C59.3,202.8,56.3,203.1,54.1,203.4z
				 M34.2,187.6c-0.6,1.9-1.5,4.4-2.3,6.2l-4.3,10.5c2.3-0.7,5.3-1.6,7.2-2.2c2.4-0.6,6.5-1.5,8.9-2l-1.2-1.5
				c-1.7-1.8-4.6-5.5-6.4-8.2C35.4,189.4,34.7,188.4,34.2,187.6z M31,150.9c-0.3,0-0.7,0.2-1,0.5c-1.1,1.2-1.6,3.9-1.3,7.2
				c0.2,2.9,0.9,7.5,1.8,10.2l0.3,1.1c0.6-2.3,1.6-6.7,2.1-10.1c0.2-1.6,0.7-6.1-0.3-7.9C32,151.2,31.4,150.9,31,150.9z"/>
			<g id="g858">
				<path class="st2" d="M-3.2,279.9v-36.1h9.6c2.8,0,5.1,0.3,6.8,0.8c1.9,0.6,3.6,1.9,4.9,3.8c1.3,1.9,1.9,4.2,1.9,6.9
					c0,2.4-0.5,4.6-1.5,6.3c-1.1,1.8-2.5,3.2-4.3,4c-1.7,0.8-4.2,1.2-7.6,1.2H5v13H-3.2z M6.4,259.8c2.6,0,3.7-0.5,4.1-1
					c0.7-0.7,1-1.8,1-3.5c0-1.3-0.2-2.3-0.7-3c-0.4-0.7-0.9-1.1-1.3-1.2c-0.4-0.1-1.3-0.3-3.1-0.3H5v8.9H6.4z"/>
				<path class="st2" d="M23.5,279.9v-36.1h8.8c3.9,0,7,0.7,9.4,2.1c2.4,1.4,4.3,3.6,5.5,6.4c1.2,2.7,1.8,5.7,1.8,9
					c0,3.4-0.5,6.5-1.6,9.2c-1.1,2.8-2.8,5-5,6.7c-2.3,1.7-5.5,2.6-9.6,2.6H23.5z M32.7,272.8c2.7,0,4.7-0.9,5.9-2.7
					c1.3-2,2-4.7,2-8.2c0-9.8-4.5-10.9-7.8-10.9h-0.9v21.8H32.7z"/>
				<polygon class="st2" points="53.7,279.9 53.7,243.9 74.9,243.9 74.9,251 61.9,251 61.9,258.3 72.3,258.3 72.3,265.4 61.9,265.4 
					61.9,279.9 				"/>
			</g>
		</g>
	</g>
</g>
</svg>
